<svg width="1178" height="580" viewBox="0 0 1178 580" fill="none" xmlns="http://www.w3.org/2000/svg">
<path d="M93.1959 139.206V509.304H46.9349V139.206H96.2809M139.459 92.9438H0.670898V555.566H139.459V92.9438Z" fill="#00599D"/>
<path d="M278.245 163.218V533.315H231.984V163.218H281.33M324.508 116.956H185.72V579.577H324.508V116.956Z" fill="#00599D"/>
<path d="M185.72 46.6819V416.78H139.459V46.6819H188.805M231.984 0.418945H93.1958V463.041H231.984V0.418945Z" fill="#00599D"/>
<path d="M370.769 69.8128V439.911H324.508V69.8128H373.854M417.032 23.5508H278.245V486.172H417.033V23.5508H417.032Z" fill="#00599D"/>
<path d="M517.865 242.771V122.07H582.353C599.022 122.07 611.322 125.058 619.253 131.036C627.185 136.899 631.151 144.428 631.151 153.624C631.151 159.717 629.427 165.177 625.978 170.005C622.645 174.718 617.759 178.454 611.322 181.213C604.884 183.972 596.952 185.351 587.526 185.351L590.975 176.04C600.401 176.04 608.505 177.362 615.288 180.006C622.185 182.65 627.473 186.501 631.151 191.559C634.945 196.502 636.841 202.479 636.841 209.492C636.841 219.952 632.473 228.114 623.737 233.977C615.115 239.839 602.47 242.771 585.802 242.771H517.865ZM557.868 214.32H582.353C586.837 214.32 590.17 213.515 592.354 211.906C594.653 210.296 595.803 207.94 595.803 204.836C595.803 201.732 594.653 199.376 592.354 197.766C590.17 196.157 586.837 195.352 582.353 195.352H555.109V168.453H576.836C581.434 168.453 584.767 167.706 586.837 166.212C589.021 164.602 590.113 162.361 590.113 159.487C590.113 156.498 589.021 154.256 586.837 152.762C584.767 151.268 581.434 150.521 576.836 150.521H557.868V214.32ZM714.51 245.529C704.739 245.529 695.658 243.978 687.266 240.874C678.99 237.77 671.805 233.402 665.713 227.769C659.62 222.021 654.849 215.297 651.401 207.595C648.067 199.893 646.4 191.501 646.4 182.42C646.4 173.224 648.067 164.832 651.401 157.245C654.849 149.543 659.62 142.876 665.713 137.243C671.805 131.496 678.99 127.07 687.266 123.966C695.658 120.863 704.739 119.311 714.51 119.311C724.396 119.311 733.477 120.863 741.754 123.966C750.031 127.07 757.215 131.496 763.308 137.243C769.4 142.876 774.113 149.543 777.447 157.245C780.896 164.832 782.62 173.224 782.62 182.42C782.62 191.501 780.896 199.893 777.447 207.595C774.113 215.297 769.4 222.021 763.308 227.769C757.215 233.402 750.031 237.77 741.754 240.874C733.477 243.978 724.396 245.529 714.51 245.529ZM714.51 212.595C718.304 212.595 721.81 211.906 725.028 210.526C728.362 209.147 731.236 207.192 733.65 204.663C736.179 202.02 738.133 198.858 739.513 195.18C740.892 191.386 741.582 187.133 741.582 182.42C741.582 177.707 740.892 173.511 739.513 169.833C738.133 166.039 736.179 162.878 733.65 160.349C731.236 157.705 728.362 155.693 725.028 154.314C721.81 152.935 718.304 152.245 714.51 152.245C710.717 152.245 707.153 152.935 703.82 154.314C700.601 155.693 697.727 157.705 695.198 160.349C692.784 162.878 690.887 166.039 689.508 169.833C688.128 173.511 687.439 177.707 687.439 182.42C687.439 187.133 688.128 191.386 689.508 195.18C690.887 198.858 692.784 202.02 695.198 204.663C697.727 207.192 700.601 209.147 703.82 210.526C707.153 211.906 710.717 212.595 714.51 212.595ZM860.671 245.529C850.9 245.529 841.819 243.978 833.428 240.874C825.151 237.77 817.966 233.402 811.874 227.769C805.781 222.021 801.011 215.297 797.562 207.595C794.228 199.893 792.562 191.501 792.562 182.42C792.562 173.224 794.228 164.832 797.562 157.245C801.011 149.543 805.781 142.876 811.874 137.243C817.966 131.496 825.151 127.07 833.428 123.966C841.819 120.863 850.9 119.311 860.671 119.311C870.557 119.311 879.639 120.863 887.915 123.966C896.192 127.07 903.377 131.496 909.469 137.243C915.562 142.876 920.275 149.543 923.608 157.245C927.057 164.832 928.781 173.224 928.781 182.42C928.781 191.501 927.057 199.893 923.608 207.595C920.275 215.297 915.562 222.021 909.469 227.769C903.377 233.402 896.192 237.77 887.915 240.874C879.639 243.978 870.557 245.529 860.671 245.529ZM860.671 212.595C864.465 212.595 867.971 211.906 871.19 210.526C874.523 209.147 877.397 207.192 879.811 204.663C882.34 202.02 884.294 198.858 885.674 195.18C887.053 191.386 887.743 187.133 887.743 182.42C887.743 177.707 887.053 173.511 885.674 169.833C884.294 166.039 882.34 162.878 879.811 160.349C877.397 157.705 874.523 155.693 871.19 154.314C867.971 152.935 864.465 152.245 860.671 152.245C856.878 152.245 853.314 152.935 849.981 154.314C846.762 155.693 843.888 157.705 841.359 160.349C838.945 162.878 837.049 166.039 835.669 169.833C834.29 173.511 833.6 177.707 833.6 182.42C833.6 187.133 834.29 191.386 835.669 195.18C837.049 198.858 838.945 202.02 841.359 204.663C843.888 207.192 846.762 209.147 849.981 210.526C853.314 211.906 856.878 212.595 860.671 212.595ZM979.934 216.906L977.692 172.247L1023.21 122.07H1067.53L1016.49 178.282L993.901 201.387L979.934 216.906ZM943.551 242.771V122.07H983.555V242.771H943.551ZM1022.87 242.771L987.348 195.87L1013.73 167.936L1069.94 242.771H1022.87ZM1117.88 245.529C1107.76 245.529 1097.99 244.38 1088.56 242.081C1079.14 239.782 1071.38 236.793 1065.29 233.114L1078.39 203.456C1084.14 206.79 1090.52 209.492 1097.53 211.561C1104.66 213.515 1111.56 214.492 1118.22 214.492C1122.13 214.492 1125.18 214.262 1127.36 213.802C1129.66 213.228 1131.33 212.48 1132.36 211.561C1133.4 210.526 1133.91 209.319 1133.91 207.94C1133.91 205.756 1132.71 204.031 1130.29 202.767C1127.88 201.502 1124.66 200.468 1120.64 199.663C1116.73 198.743 1112.42 197.824 1107.7 196.904C1102.99 195.87 1098.22 194.548 1093.39 192.938C1088.68 191.329 1084.31 189.202 1080.29 186.558C1076.38 183.914 1073.22 180.466 1070.8 176.213C1068.39 171.844 1067.18 166.442 1067.18 160.004C1067.18 152.532 1069.25 145.75 1073.39 139.657C1077.64 133.45 1083.91 128.507 1092.19 124.828C1100.58 121.15 1110.98 119.311 1123.4 119.311C1131.56 119.311 1139.6 120.173 1147.54 121.897C1155.47 123.621 1162.59 126.265 1168.92 129.829L1156.67 159.314C1150.7 156.326 1144.89 154.084 1139.26 152.59C1133.74 151.095 1128.34 150.348 1123.05 150.348C1119.14 150.348 1116.04 150.693 1113.74 151.383C1111.44 152.072 1109.77 152.992 1108.74 154.142C1107.82 155.291 1107.36 156.556 1107.36 157.935C1107.36 160.004 1108.57 161.671 1110.98 162.935C1113.39 164.085 1116.56 165.062 1120.46 165.867C1124.49 166.671 1128.86 167.534 1133.57 168.453C1138.4 169.373 1143.17 170.637 1147.88 172.247C1152.59 173.856 1156.9 175.983 1160.81 178.627C1164.84 181.271 1168.05 184.719 1170.47 188.972C1172.88 193.226 1174.09 198.513 1174.09 204.836C1174.09 212.193 1171.96 218.975 1167.71 225.183C1163.57 231.275 1157.36 236.218 1149.09 240.012C1140.81 243.69 1130.41 245.529 1117.88 245.529Z" fill="#00599D"/>
<path d="M517.865 394.879V274.178H558.558V363.324H613.046V394.879H517.865ZM685.884 397.638C676.113 397.638 667.032 396.086 658.64 392.982C650.364 389.878 643.179 385.51 637.086 379.878C630.994 374.13 626.223 367.405 622.775 359.703C619.441 352.001 617.774 343.61 617.774 334.528C617.774 325.332 619.441 316.941 622.775 309.354C626.223 301.652 630.994 294.985 637.086 289.352C643.179 283.604 650.364 279.178 658.64 276.075C667.032 272.971 676.113 271.419 685.884 271.419C695.77 271.419 704.851 272.971 713.128 276.075C721.405 279.178 728.589 283.604 734.682 289.352C740.774 294.985 745.487 301.652 748.821 309.354C752.27 316.941 753.994 325.332 753.994 334.528C753.994 343.61 752.27 352.001 748.821 359.703C745.487 367.405 740.774 374.13 734.682 379.878C728.589 385.51 721.405 389.878 713.128 392.982C704.851 396.086 695.77 397.638 685.884 397.638ZM685.884 364.704C689.678 364.704 693.184 364.014 696.402 362.635C699.736 361.255 702.61 359.301 705.024 356.772C707.553 354.128 709.507 350.967 710.886 347.288C712.266 343.495 712.956 339.242 712.956 334.528C712.956 329.815 712.266 325.62 710.886 321.941C709.507 318.148 707.553 314.986 705.024 312.457C702.61 309.813 699.736 307.802 696.402 306.422C693.184 305.043 689.678 304.353 685.884 304.353C682.091 304.353 678.527 305.043 675.193 306.422C671.975 307.802 669.101 309.813 666.572 312.457C664.158 314.986 662.261 318.148 660.882 321.941C659.502 325.62 658.813 329.815 658.813 334.528C658.813 339.242 659.502 343.495 660.882 347.288C662.261 350.967 664.158 354.128 666.572 356.772C669.101 359.301 671.975 361.255 675.193 362.635C678.527 364.014 682.091 364.704 685.884 364.704ZM831.356 397.638C821.585 397.638 812.561 396.143 804.284 393.155C796.123 390.051 788.995 385.683 782.903 380.05C776.925 374.417 772.27 367.75 768.936 360.048C765.602 352.346 763.936 343.84 763.936 334.528C763.936 325.217 765.602 316.711 768.936 309.009C772.27 301.307 776.983 294.64 783.075 289.007C789.168 283.374 796.352 279.063 804.629 276.075C813.021 272.971 822.217 271.419 832.218 271.419C844.173 271.419 854.806 273.431 864.117 277.454C873.544 281.478 881.303 287.225 887.395 294.697L861.358 317.63C857.565 313.262 853.427 309.986 848.944 307.802C844.575 305.503 839.69 304.353 834.287 304.353C829.804 304.353 825.723 305.043 822.044 306.422C818.481 307.802 815.435 309.813 812.906 312.457C810.377 315.101 808.423 318.263 807.043 321.941C805.664 325.62 804.974 329.815 804.974 334.528C804.974 339.012 805.664 343.15 807.043 346.943C808.423 350.622 810.377 353.783 812.906 356.427C815.435 359.071 818.423 361.14 821.872 362.635C825.436 364.014 829.401 364.704 833.77 364.704C838.368 364.704 842.851 363.956 847.219 362.462C851.587 360.853 856.243 358.151 861.186 354.358L883.947 382.292C876.59 387.235 868.198 391.028 858.772 393.672C849.346 396.316 840.207 397.638 831.356 397.638ZM848.599 377.119V331.252H883.947V382.292L848.599 377.119ZM964.567 397.638C954.796 397.638 945.715 396.086 937.323 392.982C929.047 389.878 921.862 385.51 915.77 379.878C909.677 374.13 904.906 367.405 901.458 359.703C898.124 352.001 896.457 343.61 896.457 334.528C896.457 325.332 898.124 316.941 901.458 309.354C904.906 301.652 909.677 294.985 915.77 289.352C921.862 283.604 929.047 279.178 937.323 276.075C945.715 272.971 954.796 271.419 964.567 271.419C974.453 271.419 983.534 272.971 991.811 276.075C1000.09 279.178 1007.27 283.604 1013.36 289.352C1019.46 294.985 1024.17 301.652 1027.5 309.354C1030.95 316.941 1032.68 325.332 1032.68 334.528C1032.68 343.61 1030.95 352.001 1027.5 359.703C1024.17 367.405 1019.46 374.13 1013.36 379.878C1007.27 385.51 1000.09 389.878 991.811 392.982C983.534 396.086 974.453 397.638 964.567 397.638ZM964.567 364.704C968.361 364.704 971.867 364.014 975.085 362.635C978.419 361.255 981.293 359.301 983.707 356.772C986.236 354.128 988.19 350.967 989.57 347.288C990.949 343.495 991.639 339.242 991.639 334.528C991.639 329.815 990.949 325.62 989.57 321.941C988.19 318.148 986.236 314.986 983.707 312.457C981.293 309.813 978.419 307.802 975.085 306.422C971.867 305.043 968.361 304.353 964.567 304.353C960.774 304.353 957.21 305.043 953.877 306.422C950.658 307.802 947.784 309.813 945.255 312.457C942.841 314.986 940.944 318.148 939.565 321.941C938.185 325.62 937.496 329.815 937.496 334.528C937.496 339.242 938.185 343.495 939.565 347.288C940.944 350.967 942.841 354.128 945.255 356.772C947.784 359.301 950.658 361.255 953.877 362.635C957.21 364.014 960.774 364.704 964.567 364.704Z" fill="#00599D"/>
</svg>
